<?xml version="1.0" standalone="no"?>
<!DOCTYPE svg PUBLIC "-//W3C//DTD SVG 20010904//EN"
 "http://www.w3.org/TR/2001/REC-SVG-20010904/DTD/svg10.dtd">
<svg version="1.0" xmlns="http://www.w3.org/2000/svg"
 width="500.000000pt" height="500.000000pt" viewBox="0 0 500.000000 500.000000"
 preserveAspectRatio="xMidYMid meet">
<metadata>
Created by potrace 1.14, written by Peter Selinger 2001-2017
</metadata>
<g transform="translate(0.000000,500.000000) scale(0.100000,-0.100000)"
fill="#000000" stroke="none">
<path d="M0 2500 l0 -2500 2500 0 2500 0 0 2500 0 2500 -2500 0 -2500 0 0
-2500z m1060 594 l0 -386 45 46 c63 66 169 131 254 156 63 19 88 22 189 17
142 -6 211 -28 319 -99 165 -111 267 -293 292 -521 20 -177 -15 -360 -96 -507
-47 -84 -169 -206 -250 -248 -120 -63 -280 -87 -414 -62 -81 15 -210 83 -279
147 l-60 55 0 -91 0 -91 -135 0 -135 0 0 985 0 985 135 0 135 0 0 -386z m1594
-321 c216 -666 268 -824 272 -821 2 3 77 166 167 364 l163 359 85 3 85 3 164
-360 c91 -198 168 -357 171 -353 4 4 16 37 28 75 11 37 80 247 152 467 l131
400 134 0 c109 0 134 -3 134 -14 0 -20 -458 -1378 -468 -1388 -5 -5 -49 -8
-97 -6 l-89 3 -157 360 c-87 198 -168 380 -179 405 l-22 44 -162 -395 c-90
-218 -166 -401 -170 -407 -5 -8 -40 -12 -96 -12 l-88 0 -17 48 c-105 301 -455
1337 -455 1348 0 11 26 14 134 14 l135 0 45 -137z"/>
<path d="M1367 2670 c-110 -28 -221 -121 -268 -225 -68 -152 -66 -343 5 -483
134 -264 484 -313 677 -94 164 186 158 518 -12 693 -74 76 -157 111 -273 115
-50 2 -108 -1 -129 -6z"/>
</g>
</svg>
